<svg xmlns="http://www.w3.org/2000/svg" xmlns:xlink="http://www.w3.org/1999/xlink" width="500" zoomAndPan="magnify" viewBox="0 0 375 374.999991" height="500" preserveAspectRatio="xMidYMid meet" version="1.0"><defs><clipPath id="71879cba00"><path d="M 375 187.5 C 375 190.570312 374.925781 193.636719 374.773438 196.699219 C 374.625 199.765625 374.398438 202.824219 374.097656 205.878906 C 373.796875 208.933594 373.421875 211.976562 372.96875 215.011719 C 372.519531 218.046875 371.996094 221.070312 371.398438 224.078125 C 370.796875 227.089844 370.125 230.082031 369.378906 233.058594 C 368.636719 236.035156 367.816406 238.992188 366.925781 241.929688 C 366.035156 244.863281 365.074219 247.777344 364.039062 250.667969 C 363.003906 253.554688 361.902344 256.417969 360.726562 259.253906 C 359.554688 262.089844 358.308594 264.890625 356.996094 267.667969 C 355.6875 270.441406 354.308594 273.179688 352.859375 275.886719 C 351.414062 278.59375 349.902344 281.261719 348.324219 283.894531 C 346.746094 286.527344 345.105469 289.117188 343.402344 291.667969 C 341.695312 294.222656 339.929688 296.730469 338.101562 299.195312 C 336.273438 301.660156 334.386719 304.078125 332.4375 306.449219 C 330.492188 308.820312 328.488281 311.144531 326.429688 313.417969 C 324.367188 315.691406 322.253906 317.914062 320.082031 320.082031 C 317.914062 322.253906 315.691406 324.367188 313.417969 326.429688 C 311.144531 328.488281 308.820312 330.492188 306.449219 332.4375 C 304.078125 334.386719 301.660156 336.273438 299.195312 338.101562 C 296.730469 339.929688 294.222656 341.695312 291.667969 343.402344 C 289.117188 345.105469 286.527344 346.746094 283.894531 348.324219 C 281.261719 349.902344 278.59375 351.414062 275.886719 352.859375 C 273.179688 354.308594 270.441406 355.6875 267.667969 356.996094 C 264.890625 358.308594 262.089844 359.554688 259.253906 360.726562 C 256.417969 361.902344 253.554688 363.003906 250.667969 364.039062 C 247.777344 365.074219 244.863281 366.035156 241.929688 366.925781 C 238.992188 367.816406 236.035156 368.636719 233.058594 369.378906 C 230.082031 370.125 227.089844 370.796875 224.078125 371.398438 C 221.070312 371.996094 218.046875 372.519531 215.011719 372.96875 C 211.976562 373.421875 208.933594 373.796875 205.878906 374.097656 C 202.824219 374.398438 199.765625 374.625 196.699219 374.773438 C 193.636719 374.925781 190.570312 375 187.5 375 C 184.429688 375 181.363281 374.925781 178.300781 374.773438 C 175.234375 374.625 172.175781 374.398438 169.121094 374.097656 C 166.066406 373.796875 163.023438 373.421875 159.988281 372.96875 C 156.953125 372.519531 153.929688 371.996094 150.921875 371.398438 C 147.910156 370.796875 144.917969 370.125 141.941406 369.378906 C 138.964844 368.636719 136.007812 367.816406 133.070312 366.925781 C 130.136719 366.035156 127.222656 365.074219 124.332031 364.039062 C 121.445312 363.003906 118.582031 361.902344 115.746094 360.726562 C 112.910156 359.554688 110.105469 358.308594 107.332031 356.996094 C 104.558594 355.6875 101.820312 354.308594 99.113281 352.859375 C 96.40625 351.414062 93.738281 349.902344 91.105469 348.324219 C 88.472656 346.746094 85.882812 345.105469 83.332031 343.402344 C 80.777344 341.695312 78.269531 339.929688 75.804688 338.101562 C 73.339844 336.273438 70.921875 334.386719 68.550781 332.4375 C 66.179688 330.492188 63.855469 328.488281 61.582031 326.429688 C 59.308594 324.367188 57.085938 322.253906 54.917969 320.082031 C 52.746094 317.914062 50.632812 315.691406 48.570312 313.417969 C 46.511719 311.144531 44.507812 308.820312 42.558594 306.449219 C 40.613281 304.078125 38.726562 301.660156 36.898438 299.195312 C 35.070312 296.730469 33.304688 294.222656 31.597656 291.667969 C 29.894531 289.117188 28.253906 286.527344 26.675781 283.894531 C 25.097656 281.261719 23.585938 278.59375 22.140625 275.886719 C 20.691406 273.179688 19.3125 270.441406 18.003906 267.667969 C 16.691406 264.890625 15.445312 262.089844 14.273438 259.253906 C 13.097656 256.417969 11.996094 253.554688 10.960938 250.667969 C 9.925781 247.777344 8.964844 244.863281 8.074219 241.929688 C 7.183594 238.992188 6.363281 236.035156 5.621094 233.058594 C 4.875 230.082031 4.203125 227.089844 3.601562 224.078125 C 3.003906 221.070312 2.480469 218.046875 2.03125 215.011719 C 1.578125 211.976562 1.203125 208.933594 0.902344 205.878906 C 0.601562 202.824219 0.375 199.765625 0.226562 196.699219 C 0.0742188 193.636719 0 190.570312 0 187.5 C 0 184.429688 0.0742188 181.363281 0.226562 178.300781 C 0.375 175.234375 0.601562 172.175781 0.902344 169.121094 C 1.203125 166.066406 1.578125 163.023438 2.03125 159.988281 C 2.480469 156.953125 3.003906 153.929688 3.601562 150.921875 C 4.203125 147.910156 4.875 144.917969 5.621094 141.941406 C 6.363281 138.964844 7.183594 136.007812 8.074219 133.070312 C 8.964844 130.136719 9.925781 127.222656 10.960938 124.332031 C 11.996094 121.445312 13.097656 118.582031 14.273438 115.746094 C 15.445312 112.910156 16.691406 110.105469 18.003906 107.332031 C 19.3125 104.558594 20.691406 101.820312 22.140625 99.113281 C 23.585938 96.40625 25.097656 93.738281 26.675781 91.105469 C 28.253906 88.472656 29.894531 85.882812 31.597656 83.332031 C 33.304688 80.777344 35.070312 78.269531 36.898438 75.804688 C 38.726562 73.339844 40.613281 70.921875 42.558594 68.550781 C 44.507812 66.179688 46.511719 63.855469 48.570312 61.582031 C 50.632812 59.308594 52.746094 57.085938 54.917969 54.917969 C 57.085938 52.746094 59.308594 50.632812 61.582031 48.570312 C 63.855469 46.511719 66.179688 44.507812 68.550781 42.558594 C 70.921875 40.613281 73.339844 38.726562 75.804688 36.898438 C 78.269531 35.070312 80.777344 33.304688 83.332031 31.597656 C 85.882812 29.894531 88.472656 28.253906 91.105469 26.675781 C 93.738281 25.097656 96.40625 23.585938 99.113281 22.140625 C 101.820312 20.691406 104.558594 19.3125 107.332031 18.003906 C 110.105469 16.691406 112.910156 15.445312 115.746094 14.273438 C 118.582031 13.097656 121.445312 11.996094 124.332031 10.960938 C 127.222656 9.925781 130.136719 8.964844 133.070312 8.074219 C 136.007812 7.183594 138.964844 6.363281 141.941406 5.617188 C 144.917969 4.875 147.910156 4.203125 150.921875 3.601562 C 153.929688 3.003906 156.953125 2.480469 159.988281 2.03125 C 163.023438 1.578125 166.066406 1.203125 169.121094 0.902344 C 172.175781 0.601562 175.234375 0.375 178.300781 0.226562 C 181.363281 0.0742188 184.429688 0 187.5 0 C 190.570312 0 193.636719 0.0742188 196.699219 0.226562 C 199.765625 0.375 202.824219 0.601562 205.878906 0.902344 C 208.933594 1.203125 211.976562 1.578125 215.011719 2.03125 C 218.046875 2.480469 221.070312 3.003906 224.078125 3.601562 C 227.089844 4.203125 230.082031 4.875 233.058594 5.617188 C 236.035156 6.363281 238.992188 7.183594 241.929688 8.074219 C 244.863281 8.964844 247.777344 9.925781 250.667969 10.960938 C 253.554688 11.996094 256.417969 13.097656 259.253906 14.273438 C 262.089844 15.445312 264.890625 16.691406 267.667969 18.003906 C 270.441406 19.3125 273.179688 20.691406 275.886719 22.140625 C 278.59375 23.585938 281.261719 25.097656 283.894531 26.675781 C 286.527344 28.253906 289.117188 29.894531 291.667969 31.597656 C 294.222656 33.304688 296.730469 35.070312 299.195312 36.898438 C 301.660156 38.726562 304.078125 40.613281 306.449219 42.558594 C 308.820312 44.507812 311.144531 46.511719 313.417969 48.570312 C 315.691406 50.632812 317.914062 52.746094 320.082031 54.917969 C 322.253906 57.085938 324.367188 59.308594 326.429688 61.582031 C 328.488281 63.855469 330.492188 66.179688 332.4375 68.550781 C 334.386719 70.921875 336.273438 73.339844 338.101562 75.804688 C 339.929688 78.269531 341.695312 80.777344 343.402344 83.332031 C 345.105469 85.882812 346.746094 88.472656 348.324219 91.105469 C 349.902344 93.738281 351.414062 96.40625 352.859375 99.113281 C 354.308594 101.820312 355.6875 104.558594 356.996094 107.332031 C 358.308594 110.105469 359.554688 112.910156 360.726562 115.746094 C 361.902344 118.582031 363.003906 121.445312 364.039062 124.332031 C 365.074219 127.222656 366.035156 130.136719 366.925781 133.070312 C 367.816406 136.007812 368.636719 138.964844 369.378906 141.941406 C 370.125 144.917969 370.796875 147.910156 371.398438 150.921875 C 371.996094 153.929688 372.519531 156.953125 372.96875 159.988281 C 373.421875 163.023438 373.796875 166.066406 374.097656 169.121094 C 374.398438 172.175781 374.625 175.234375 374.773438 178.300781 C 374.925781 181.363281 375 184.429688 375 187.5 Z M 375 187.5 " clip-rule="nonzero"/></clipPath><linearGradient x1="0.000000000000000114" gradientTransform="matrix(374.999991, 0, 0, 374.999991, 0.0000045, -0)" y1="0.000000000000000113" x2="1.004902" gradientUnits="userSpaceOnUse" y2="0.995049" id="3efbb35d4e"><stop stop-opacity="1" stop-color="rgb(97.599792%, 46.699524%, 29.399109%)" offset="0"/><stop stop-opacity="1" stop-color="rgb(97.57843%, 46.620178%, 29.296875%)" offset="0.0078125"/><stop stop-opacity="1" stop-color="rgb(97.535706%, 46.463013%, 29.093933%)" offset="0.015625"/><stop stop-opacity="1" stop-color="rgb(97.494507%, 46.304321%, 28.890991%)" offset="0.0234375"/><stop stop-opacity="1" stop-color="rgb(97.453308%, 46.147156%, 28.688049%)" offset="0.03125"/><stop stop-opacity="1" stop-color="rgb(97.410583%, 45.98999%, 28.485107%)" offset="0.0390625"/><stop stop-opacity="1" stop-color="rgb(97.369385%, 45.832825%, 28.282166%)" offset="0.046875"/><stop stop-opacity="1" stop-color="rgb(97.328186%, 45.675659%, 28.079224%)" offset="0.0546875"/><stop stop-opacity="1" stop-color="rgb(97.285461%, 45.516968%, 27.876282%)" offset="0.0625"/><stop stop-opacity="1" stop-color="rgb(97.244263%, 45.359802%, 27.67334%)" offset="0.0703125"/><stop stop-opacity="1" stop-color="rgb(97.203064%, 45.202637%, 27.468872%)" offset="0.078125"/><stop stop-opacity="1" stop-color="rgb(97.160339%, 45.045471%, 27.26593%)" offset="0.0859375"/><stop stop-opacity="1" stop-color="rgb(97.119141%, 44.88678%, 27.062988%)" offset="0.09375"/><stop stop-opacity="1" stop-color="rgb(97.077942%, 44.729614%, 26.860046%)" offset="0.101563"/><stop stop-opacity="1" stop-color="rgb(97.035217%, 44.572449%, 26.657104%)" offset="0.109375"/><stop stop-opacity="1" stop-color="rgb(96.994019%, 44.415283%, 26.454163%)" offset="0.117188"/><stop stop-opacity="1" stop-color="rgb(96.95282%, 44.258118%, 26.251221%)" offset="0.125"/><stop stop-opacity="1" stop-color="rgb(96.910095%, 44.099426%, 26.048279%)" offset="0.132812"/><stop stop-opacity="1" stop-color="rgb(96.868896%, 43.942261%, 25.845337%)" offset="0.140625"/><stop stop-opacity="1" stop-color="rgb(96.827698%, 43.785095%, 25.642395%)" offset="0.148438"/><stop stop-opacity="1" stop-color="rgb(96.786499%, 43.62793%, 25.439453%)" offset="0.15625"/><stop stop-opacity="1" stop-color="rgb(96.743774%, 43.469238%, 25.236511%)" offset="0.164062"/><stop stop-opacity="1" stop-color="rgb(96.702576%, 43.312073%, 25.033569%)" offset="0.171875"/><stop stop-opacity="1" stop-color="rgb(96.661377%, 43.154907%, 24.830627%)" offset="0.179688"/><stop stop-opacity="1" stop-color="rgb(96.618652%, 42.997742%, 24.627686%)" offset="0.1875"/><stop stop-opacity="1" stop-color="rgb(96.577454%, 42.840576%, 24.423218%)" offset="0.195313"/><stop stop-opacity="1" stop-color="rgb(96.536255%, 42.681885%, 24.220276%)" offset="0.203125"/><stop stop-opacity="1" stop-color="rgb(96.49353%, 42.524719%, 24.017334%)" offset="0.210938"/><stop stop-opacity="1" stop-color="rgb(96.452332%, 42.367554%, 23.814392%)" offset="0.21875"/><stop stop-opacity="1" stop-color="rgb(96.411133%, 42.210388%, 23.61145%)" offset="0.226562"/><stop stop-opacity="1" stop-color="rgb(96.368408%, 42.053223%, 23.408508%)" offset="0.234375"/><stop stop-opacity="1" stop-color="rgb(96.327209%, 41.894531%, 23.205566%)" offset="0.242188"/><stop stop-opacity="1" stop-color="rgb(96.286011%, 41.737366%, 23.002625%)" offset="0.25"/><stop stop-opacity="1" stop-color="rgb(96.243286%, 41.5802%, 22.799683%)" offset="0.257812"/><stop stop-opacity="1" stop-color="rgb(96.202087%, 41.423035%, 22.596741%)" offset="0.265625"/><stop stop-opacity="1" stop-color="rgb(96.160889%, 41.264343%, 22.393799%)" offset="0.273437"/><stop stop-opacity="1" stop-color="rgb(96.118164%, 41.107178%, 22.190857%)" offset="0.28125"/><stop stop-opacity="1" stop-color="rgb(96.076965%, 40.950012%, 21.987915%)" offset="0.289062"/><stop stop-opacity="1" stop-color="rgb(96.035767%, 40.792847%, 21.784973%)" offset="0.296875"/><stop stop-opacity="1" stop-color="rgb(95.993042%, 40.635681%, 21.582031%)" offset="0.304688"/><stop stop-opacity="1" stop-color="rgb(95.951843%, 40.47699%, 21.377563%)" offset="0.3125"/><stop stop-opacity="1" stop-color="rgb(95.910645%, 40.319824%, 21.174622%)" offset="0.320312"/><stop stop-opacity="1" stop-color="rgb(95.86792%, 40.162659%, 20.97168%)" offset="0.328125"/><stop stop-opacity="1" stop-color="rgb(95.826721%, 40.005493%, 20.768738%)" offset="0.335938"/><stop stop-opacity="1" stop-color="rgb(95.785522%, 39.848328%, 20.565796%)" offset="0.34375"/><stop stop-opacity="1" stop-color="rgb(95.742798%, 39.689636%, 20.362854%)" offset="0.351562"/><stop stop-opacity="1" stop-color="rgb(95.701599%, 39.532471%, 20.159912%)" offset="0.359375"/><stop stop-opacity="1" stop-color="rgb(95.6604%, 39.375305%, 19.95697%)" offset="0.367188"/><stop stop-opacity="1" stop-color="rgb(95.619202%, 39.21814%, 19.754028%)" offset="0.375"/><stop stop-opacity="1" stop-color="rgb(95.576477%, 39.059448%, 19.551086%)" offset="0.382813"/><stop stop-opacity="1" stop-color="rgb(95.535278%, 38.902283%, 19.348145%)" offset="0.390625"/><stop stop-opacity="1" stop-color="rgb(95.49408%, 38.745117%, 19.145203%)" offset="0.398438"/><stop stop-opacity="1" stop-color="rgb(95.451355%, 38.587952%, 18.942261%)" offset="0.40625"/><stop stop-opacity="1" stop-color="rgb(95.410156%, 38.430786%, 18.739319%)" offset="0.414063"/><stop stop-opacity="1" stop-color="rgb(95.368958%, 38.272095%, 18.536377%)" offset="0.421875"/><stop stop-opacity="1" stop-color="rgb(95.326233%, 38.114929%, 18.331909%)" offset="0.429688"/><stop stop-opacity="1" stop-color="rgb(95.285034%, 37.957764%, 18.128967%)" offset="0.4375"/><stop stop-opacity="1" stop-color="rgb(95.243835%, 37.800598%, 17.926025%)" offset="0.445312"/><stop stop-opacity="1" stop-color="rgb(95.201111%, 37.643433%, 17.723083%)" offset="0.453125"/><stop stop-opacity="1" stop-color="rgb(95.159912%, 37.484741%, 17.520142%)" offset="0.460938"/><stop stop-opacity="1" stop-color="rgb(95.118713%, 37.327576%, 17.3172%)" offset="0.46875"/><stop stop-opacity="1" stop-color="rgb(95.075989%, 37.17041%, 17.114258%)" offset="0.476562"/><stop stop-opacity="1" stop-color="rgb(95.03479%, 37.013245%, 16.911316%)" offset="0.484375"/><stop stop-opacity="1" stop-color="rgb(94.993591%, 36.854553%, 16.708374%)" offset="0.492188"/><stop stop-opacity="1" stop-color="rgb(94.950867%, 36.697388%, 16.505432%)" offset="0.497537"/><stop stop-opacity="1" stop-color="rgb(94.93103%, 36.619568%, 16.404724%)" offset="0.5"/><stop stop-opacity="1" stop-color="rgb(94.909668%, 36.540222%, 16.30249%)" offset="0.502463"/><stop stop-opacity="1" stop-color="rgb(94.889832%, 36.462402%, 16.201782%)" offset="0.507813"/><stop stop-opacity="1" stop-color="rgb(94.868469%, 36.383057%, 16.099548%)" offset="0.515625"/><stop stop-opacity="1" stop-color="rgb(94.825745%, 36.225891%, 15.896606%)" offset="0.523438"/><stop stop-opacity="1" stop-color="rgb(94.784546%, 36.0672%, 15.693665%)" offset="0.53125"/><stop stop-opacity="1" stop-color="rgb(94.743347%, 35.910034%, 15.490723%)" offset="0.539063"/><stop stop-opacity="1" stop-color="rgb(94.700623%, 35.752869%, 15.286255%)" offset="0.546875"/><stop stop-opacity="1" stop-color="rgb(94.659424%, 35.595703%, 15.083313%)" offset="0.554688"/><stop stop-opacity="1" stop-color="rgb(94.618225%, 35.438538%, 14.880371%)" offset="0.5625"/><stop stop-opacity="1" stop-color="rgb(94.5755%, 35.279846%, 14.677429%)" offset="0.570313"/><stop stop-opacity="1" stop-color="rgb(94.534302%, 35.122681%, 14.474487%)" offset="0.578125"/><stop stop-opacity="1" stop-color="rgb(94.493103%, 34.965515%, 14.271545%)" offset="0.585938"/><stop stop-opacity="1" stop-color="rgb(94.451904%, 34.80835%, 14.068604%)" offset="0.59375"/><stop stop-opacity="1" stop-color="rgb(94.40918%, 34.649658%, 13.865662%)" offset="0.601562"/><stop stop-opacity="1" stop-color="rgb(94.367981%, 34.492493%, 13.66272%)" offset="0.609375"/><stop stop-opacity="1" stop-color="rgb(94.326782%, 34.335327%, 13.459778%)" offset="0.617188"/><stop stop-opacity="1" stop-color="rgb(94.284058%, 34.178162%, 13.256836%)" offset="0.625"/><stop stop-opacity="1" stop-color="rgb(94.242859%, 34.020996%, 13.053894%)" offset="0.632812"/><stop stop-opacity="1" stop-color="rgb(94.20166%, 33.862305%, 12.850952%)" offset="0.640625"/><stop stop-opacity="1" stop-color="rgb(94.158936%, 33.705139%, 12.64801%)" offset="0.648437"/><stop stop-opacity="1" stop-color="rgb(94.117737%, 33.547974%, 12.445068%)" offset="0.65625"/><stop stop-opacity="1" stop-color="rgb(94.076538%, 33.390808%, 12.240601%)" offset="0.664062"/><stop stop-opacity="1" stop-color="rgb(94.033813%, 33.232117%, 12.037659%)" offset="0.671875"/><stop stop-opacity="1" stop-color="rgb(93.992615%, 33.074951%, 11.834717%)" offset="0.679687"/><stop stop-opacity="1" stop-color="rgb(93.951416%, 32.917786%, 11.631775%)" offset="0.6875"/><stop stop-opacity="1" stop-color="rgb(93.908691%, 32.76062%, 11.428833%)" offset="0.695312"/><stop stop-opacity="1" stop-color="rgb(93.867493%, 32.603455%, 11.225891%)" offset="0.703125"/><stop stop-opacity="1" stop-color="rgb(93.826294%, 32.444763%, 11.022949%)" offset="0.710937"/><stop stop-opacity="1" stop-color="rgb(93.783569%, 32.287598%, 10.820007%)" offset="0.71875"/><stop stop-opacity="1" stop-color="rgb(93.742371%, 32.130432%, 10.617065%)" offset="0.726562"/><stop stop-opacity="1" stop-color="rgb(93.701172%, 31.973267%, 10.414124%)" offset="0.734375"/><stop stop-opacity="1" stop-color="rgb(93.658447%, 31.816101%, 10.211182%)" offset="0.742187"/><stop stop-opacity="1" stop-color="rgb(93.617249%, 31.65741%, 10.00824%)" offset="0.75"/><stop stop-opacity="1" stop-color="rgb(93.57605%, 31.500244%, 9.805298%)" offset="0.757812"/><stop stop-opacity="1" stop-color="rgb(93.533325%, 31.343079%, 9.602356%)" offset="0.765625"/><stop stop-opacity="1" stop-color="rgb(93.492126%, 31.185913%, 9.397888%)" offset="0.773437"/><stop stop-opacity="1" stop-color="rgb(93.450928%, 31.027222%, 9.194946%)" offset="0.78125"/><stop stop-opacity="1" stop-color="rgb(93.408203%, 30.870056%, 8.992004%)" offset="0.789062"/><stop stop-opacity="1" stop-color="rgb(93.367004%, 30.712891%, 8.789062%)" offset="0.796875"/><stop stop-opacity="1" stop-color="rgb(93.325806%, 30.555725%, 8.586121%)" offset="0.804687"/><stop stop-opacity="1" stop-color="rgb(93.283081%, 30.39856%, 8.383179%)" offset="0.8125"/><stop stop-opacity="1" stop-color="rgb(93.241882%, 30.239868%, 8.180237%)" offset="0.820312"/><stop stop-opacity="1" stop-color="rgb(93.200684%, 30.082703%, 7.977295%)" offset="0.828125"/><stop stop-opacity="1" stop-color="rgb(93.159485%, 29.925537%, 7.774353%)" offset="0.835938"/><stop stop-opacity="1" stop-color="rgb(93.11676%, 29.768372%, 7.571411%)" offset="0.84375"/><stop stop-opacity="1" stop-color="rgb(93.075562%, 29.611206%, 7.368469%)" offset="0.851563"/><stop stop-opacity="1" stop-color="rgb(93.034363%, 29.452515%, 7.165527%)" offset="0.859375"/><stop stop-opacity="1" stop-color="rgb(92.991638%, 29.295349%, 6.962585%)" offset="0.867188"/><stop stop-opacity="1" stop-color="rgb(92.950439%, 29.138184%, 6.759644%)" offset="0.875"/><stop stop-opacity="1" stop-color="rgb(92.909241%, 28.981018%, 6.556702%)" offset="0.882813"/><stop stop-opacity="1" stop-color="rgb(92.866516%, 28.822327%, 6.352234%)" offset="0.890625"/><stop stop-opacity="1" stop-color="rgb(92.825317%, 28.665161%, 6.149292%)" offset="0.898438"/><stop stop-opacity="1" stop-color="rgb(92.784119%, 28.507996%, 5.94635%)" offset="0.90625"/><stop stop-opacity="1" stop-color="rgb(92.741394%, 28.35083%, 5.743408%)" offset="0.914063"/><stop stop-opacity="1" stop-color="rgb(92.700195%, 28.193665%, 5.540466%)" offset="0.921875"/><stop stop-opacity="1" stop-color="rgb(92.658997%, 28.034973%, 5.337524%)" offset="0.929688"/><stop stop-opacity="1" stop-color="rgb(92.616272%, 27.877808%, 5.134583%)" offset="0.9375"/><stop stop-opacity="1" stop-color="rgb(92.575073%, 27.720642%, 4.931641%)" offset="0.945313"/><stop stop-opacity="1" stop-color="rgb(92.533875%, 27.563477%, 4.728699%)" offset="0.953125"/><stop stop-opacity="1" stop-color="rgb(92.49115%, 27.406311%, 4.525757%)" offset="0.960938"/><stop stop-opacity="1" stop-color="rgb(92.449951%, 27.24762%, 4.322815%)" offset="0.96875"/><stop stop-opacity="1" stop-color="rgb(92.408752%, 27.090454%, 4.119873%)" offset="0.976562"/><stop stop-opacity="1" stop-color="rgb(92.366028%, 26.933289%, 3.916931%)" offset="0.984375"/><stop stop-opacity="1" stop-color="rgb(92.324829%, 26.776123%, 3.713989%)" offset="0.992188"/><stop stop-opacity="1" stop-color="rgb(92.28363%, 26.617432%, 3.511047%)" offset="1"/></linearGradient><clipPath id="dddfe5c3ff"><path d="M 93.023438 122 L 282 122 L 282 257.324219 L 93.023438 257.324219 Z M 93.023438 122 " clip-rule="nonzero"/></clipPath></defs><g clip-path="url(#71879cba00)"><rect x="-37.5" fill="url(#3efbb35d4e)" width="450" y="-37.499999" height="449.999989"/></g><g clip-path="url(#dddfe5c3ff)"><path fill="#ffffff" d="M 281.886719 237.800781 L 258.910156 257.171875 L 219.96875 210.980469 L 200.535156 187.925781 L 175.886719 158.6875 C 170.03125 154.351562 163.289062 152.140625 156.433594 152.140625 C 151.5625 152.140625 146.640625 153.257812 141.929688 155.523438 C 130.171875 161.175781 123.160156 172.328125 123.160156 185.367188 C 123.160156 191.164062 124.53125 196.144531 126.695312 200.394531 C 130.621094 208.105469 137.230469 213.320312 143.601562 215.957031 C 150.710938 218.90625 160.316406 219.867188 169.4375 215.867188 C 169.648438 215.773438 169.90625 215.632812 170.207031 215.441406 C 182.953125 207.480469 199.625 210.160156 209.308594 221.648438 L 200.929688 230.03125 C 182.527344 248.441406 156.148438 253.6875 132.097656 243.722656 C 112.828125 235.746094 99.4375 219.800781 94.859375 200.394531 C 93.71875 195.566406 93.105469 190.546875 93.105469 185.367188 C 93.105469 160.867188 106.816406 139.050781 128.902344 128.441406 C 150.988281 117.824219 176.589844 120.742188 195.71875 136.050781 L 197.816406 138.097656 L 221.847656 166.605469 L 259.777344 128.675781 L 281.019531 149.925781 L 251.953125 178.988281 L 241.292969 189.652344 Z M 281.886719 237.800781 " fill-opacity="1" fill-rule="nonzero"/></g></svg>