<svg xmlns="http://www.w3.org/2000/svg" xmlns:xlink="http://www.w3.org/1999/xlink" width="500" zoomAndPan="magnify" viewBox="0 0 375 374.999991" height="500" preserveAspectRatio="xMidYMid meet" version="1.0"><defs><clipPath id="8d8479993f"><path d="M 64.480469 102 L 310.480469 102 L 310.480469 278.273438 L 64.480469 278.273438 Z M 64.480469 102 " clip-rule="nonzero"/></clipPath></defs><g clip-path="url(#8d8479993f)"><path fill="#fbfff9" d="M 310.410156 253 L 280.492188 278.226562 L 229.785156 218.078125 L 204.476562 188.058594 L 172.382812 149.984375 C 164.757812 144.335938 155.976562 141.460938 147.050781 141.460938 C 140.707031 141.460938 134.296875 142.910156 128.164062 145.863281 C 112.855469 153.222656 103.722656 167.746094 103.722656 184.722656 C 103.722656 192.273438 105.507812 198.757812 108.328125 204.292969 C 113.4375 214.332031 122.046875 221.125 130.339844 224.558594 C 139.597656 228.398438 152.105469 229.648438 163.984375 224.441406 C 164.261719 224.316406 164.59375 224.136719 164.988281 223.886719 C 181.582031 213.519531 203.292969 217.007812 215.902344 231.972656 L 204.992188 242.882812 C 181.027344 266.855469 146.679688 273.6875 115.359375 260.710938 C 90.269531 250.324219 72.832031 229.5625 66.871094 204.292969 C 65.386719 198.003906 64.585938 191.46875 64.585938 184.722656 C 64.585938 152.820312 82.445312 124.414062 111.203125 110.597656 C 139.960938 96.773438 173.300781 100.574219 198.207031 120.507812 L 200.941406 123.171875 L 232.230469 160.292969 L 281.621094 110.902344 L 309.28125 138.574219 L 257.550781 190.304688 Z M 310.410156 253 " fill-opacity="1" fill-rule="nonzero"/></g></svg>