<svg xmlns="http://www.w3.org/2000/svg" xmlns:xlink="http://www.w3.org/1999/xlink" width="500" zoomAndPan="magnify" viewBox="0 0 375 374.999991" height="500" preserveAspectRatio="xMidYMid meet" version="1.0"><defs><filter x="0%" y="0%" width="100%" height="100%" id="6f6782c71e"><feColorMatrix values="0 0 0 0 1 0 0 0 0 1 0 0 0 0 1 0 0 0 1 0" color-interpolation-filters="sRGB"/></filter><mask id="5e53a45d7e"><g filter="url(#6f6782c71e)"><rect x="-37.5" width="450" fill="#000000" y="-37.499999" height="449.999989" fill-opacity="0.2"/></g></mask><clipPath id="c950e16765"><rect x="0" width="199" y="0" height="20"/></clipPath><clipPath id="2c37be0d7d"><path d="M 168 3 L 287 3 L 287 374.984375 L 168 374.984375 Z M 168 3 " clip-rule="nonzero"/></clipPath><mask id="4c12902ea2"><g filter="url(#6f6782c71e)"><rect x="-37.5" width="450" fill="#000000" y="-37.499999" height="449.999989" fill-opacity="0.15"/></g></mask><clipPath id="59668800b9"><rect x="0" width="119" y="0" height="372"/></clipPath><mask id="e00d316fc9"><g filter="url(#6f6782c71e)"><rect x="-37.5" width="450" fill="#000000" y="-37.499999" height="449.999989" fill-opacity="0.3"/></g></mask><clipPath id="4064473e6a"><rect x="0" width="112" y="0" height="156"/></clipPath><clipPath id="c12e673069"><path d="M 20 1.484375 L 355 1.484375 L 355 374.984375 L 20 374.984375 Z M 20 1.484375 " clip-rule="nonzero"/></clipPath></defs><path fill="#03f4ff" d="M 150.953125 258.382812 L 224.039062 258.382812 C 224.898438 258.382812 225.746094 258.46875 226.585938 258.636719 C 227.425781 258.800781 228.242188 259.050781 229.035156 259.378906 C 229.824219 259.707031 230.578125 260.109375 231.289062 260.582031 C 232.003906 261.058594 232.660156 261.601562 233.269531 262.207031 C 233.875 262.8125 234.414062 263.472656 234.890625 264.183594 C 235.367188 264.898438 235.769531 265.648438 236.097656 266.441406 C 236.425781 267.230469 236.671875 268.046875 236.839844 268.890625 C 237.007812 269.730469 237.089844 270.578125 237.089844 271.433594 L 237.089844 277.648438 L 137.832031 277.648438 L 137.832031 271.433594 C 137.832031 270.574219 137.914062 269.722656 138.082031 268.878906 C 138.25 268.035156 138.5 267.21875 138.832031 266.421875 C 139.160156 265.628906 139.566406 264.875 140.046875 264.160156 C 140.523438 263.445312 141.070312 262.785156 141.679688 262.179688 C 142.289062 261.574219 142.953125 261.035156 143.667969 260.558594 C 144.386719 260.082031 145.140625 259.683594 145.9375 259.355469 C 146.734375 259.03125 147.554688 258.785156 148.398438 258.621094 C 149.242188 258.457031 150.09375 258.378906 150.953125 258.382812 Z M 150.953125 258.382812 " fill-opacity="1" fill-rule="nonzero"/><path fill="#003c3f" d="M 121.25 277.648438 L 253.707031 277.648438 L 253.707031 355.511719 L 121.25 355.511719 Z M 121.25 277.648438 " fill-opacity="1" fill-rule="nonzero"/><path fill="#003c3f" d="M 239.003906 292.351562 L 239.003906 340.808594 L 135.917969 340.808594 L 135.917969 292.351562 Z M 239.003906 292.351562 " fill-opacity="1" fill-rule="nonzero"/><path fill="#03f4ff" d="M 114.890625 355.546875 L 260.105469 355.546875 C 260.636719 355.546875 261.160156 355.601562 261.683594 355.703125 C 262.203125 355.808594 262.707031 355.960938 263.199219 356.164062 C 263.691406 356.367188 264.15625 356.613281 264.597656 356.910156 C 265.039062 357.203125 265.449219 357.539062 265.824219 357.910156 C 266.199219 358.285156 266.535156 358.695312 266.828125 359.136719 C 267.125 359.574219 267.375 360.039062 267.578125 360.53125 C 267.78125 361.019531 267.933594 361.523438 268.035156 362.042969 C 268.140625 362.5625 268.191406 363.089844 268.191406 363.617188 C 268.191406 364.148438 268.140625 364.671875 268.035156 365.191406 C 267.933594 365.710938 267.78125 366.214844 267.578125 366.707031 C 267.375 367.195312 267.125 367.660156 266.828125 368.101562 C 266.535156 368.542969 266.199219 368.949219 265.824219 369.324219 C 265.449219 369.699219 265.039062 370.03125 264.597656 370.328125 C 264.15625 370.621094 263.691406 370.871094 263.199219 371.074219 C 262.707031 371.277344 262.203125 371.429688 261.683594 371.53125 C 261.160156 371.636719 260.636719 371.6875 260.105469 371.6875 L 114.890625 371.6875 C 114.359375 371.6875 113.832031 371.636719 113.3125 371.53125 C 112.792969 371.429688 112.285156 371.277344 111.796875 371.074219 C 111.304688 370.871094 110.839844 370.621094 110.398438 370.328125 C 109.957031 370.03125 109.546875 369.699219 109.171875 369.324219 C 108.796875 368.949219 108.460938 368.542969 108.164062 368.101562 C 107.871094 367.660156 107.621094 367.195312 107.417969 366.707031 C 107.214844 366.214844 107.0625 365.710938 106.957031 365.191406 C 106.855469 364.671875 106.800781 364.148438 106.800781 363.617188 C 106.800781 363.089844 106.855469 362.5625 106.957031 362.042969 C 107.0625 361.523438 107.214844 361.019531 107.417969 360.53125 C 107.621094 360.039062 107.871094 359.574219 108.164062 359.136719 C 108.460938 358.695312 108.796875 358.285156 109.171875 357.910156 C 109.546875 357.539062 109.957031 357.203125 110.398438 356.910156 C 110.839844 356.613281 111.304688 356.367188 111.796875 356.164062 C 112.285156 355.960938 112.792969 355.808594 113.3125 355.703125 C 113.832031 355.601562 114.359375 355.546875 114.890625 355.546875 Z M 114.890625 355.546875 " fill-opacity="1" fill-rule="nonzero"/><path fill="#003c3f" d="M 54.671875 124.898438 C 39.160156 104.640625 37.285156 67.953125 37.429688 49.535156 C 46.386719 53.109375 55.660156 55.351562 65.261719 56.261719 C 77.953125 57.660156 90.6875 58.371094 103.457031 58.394531 L 103.457031 43.910156 C 91.164062 43.90625 78.910156 43.230469 66.695312 41.886719 C 45.480469 39.71875 34.96875 32.109375 34.929688 32.070312 C 34.671875 31.886719 34.402344 31.71875 34.125 31.570312 C 33.84375 31.417969 33.554688 31.289062 33.257812 31.175781 C 32.964844 31.0625 32.660156 30.96875 32.351562 30.894531 C 32.042969 30.820312 31.730469 30.769531 31.414062 30.734375 C 31.097656 30.703125 30.78125 30.6875 30.464844 30.695312 C 30.148438 30.703125 29.832031 30.734375 29.519531 30.78125 C 29.203125 30.832031 28.894531 30.898438 28.589844 30.988281 C 28.285156 31.078125 27.988281 31.183594 27.695312 31.3125 C 27.40625 31.441406 27.125 31.585938 26.851562 31.75 C 26.582031 31.914062 26.320312 32.09375 26.074219 32.292969 C 25.824219 32.488281 25.589844 32.703125 25.367188 32.929688 C 25.148438 33.15625 24.941406 33.398438 24.753906 33.652344 C 24.5625 33.90625 24.390625 34.171875 24.234375 34.449219 C 24.078125 34.726562 23.941406 35.011719 23.824219 35.308594 C 23.707031 35.601562 23.605469 35.902344 23.527344 36.210938 C 23.449219 36.519531 23.390625 36.828125 23.351562 37.144531 C 23.128906 39.753906 18.609375 101.515625 43.164062 133.648438 C 63.421875 160.117188 97.28125 163.058594 110.921875 163.058594 C 108.800781 158.308594 107.121094 153.40625 105.882812 148.351562 C 92.613281 147.617188 68.863281 143.464844 54.671875 124.898438 Z M 54.671875 124.898438 " fill-opacity="1" fill-rule="nonzero"/><path fill="#003c3f" d="M 351.644531 37.144531 C 351.585938 36.5 351.449219 35.875 351.226562 35.265625 C 351.007812 34.660156 350.710938 34.09375 350.339844 33.5625 C 349.96875 33.035156 349.535156 32.5625 349.039062 32.144531 C 348.542969 31.730469 348.003906 31.386719 347.417969 31.117188 C 346.824219 30.851562 346.203125 30.671875 345.5625 30.570312 C 344.921875 30.472656 344.277344 30.457031 343.628906 30.527344 C 342.984375 30.597656 342.359375 30.753906 341.753906 30.988281 C 341.148438 31.226562 340.585938 31.539062 340.0625 31.925781 C 340.0625 31.925781 329.476562 39.609375 308.261719 41.777344 C 296.105469 43.113281 283.914062 43.789062 271.683594 43.796875 L 271.683594 58.285156 C 284.457031 58.28125 297.1875 57.574219 309.882812 56.152344 C 319.492188 55.242188 328.78125 53 337.746094 49.421875 C 337.746094 67.804688 336.019531 104.566406 320.46875 124.789062 C 306.277344 143.351562 282.53125 147.507812 269.257812 148.277344 C 268.019531 153.332031 266.339844 158.234375 264.222656 162.984375 C 277.898438 162.984375 311.71875 160.078125 331.976562 133.574219 C 356.386719 101.589844 351.863281 39.828125 351.644531 37.144531 Z M 351.644531 37.144531 " fill-opacity="1" fill-rule="nonzero"/><path fill="#003c3f" d="M 187.496094 212.578125 C 183.222656 212.578125 178.96875 212.257812 174.742188 211.621094 C 173.933594 211.621094 173.195312 211.328125 172.425781 211.179688 C 171.128906 219.46875 169.28125 227.628906 166.875 235.664062 C 161.285156 254.046875 156.542969 258.496094 156.542969 258.496094 L 218.453125 258.496094 C 218.453125 258.496094 213.710938 254.046875 208.121094 235.664062 C 205.71875 227.664062 203.867188 219.539062 202.570312 211.289062 C 201.796875 211.289062 201.0625 211.621094 200.253906 211.730469 C 196.023438 212.332031 191.769531 212.613281 187.496094 212.578125 Z M 187.496094 212.578125 " fill-opacity="1" fill-rule="nonzero"/><path fill="#03f4ff" d="M 271.539062 21.851562 L 271.539062 128.464844 C 271.519531 135.179688 270.710938 141.796875 269.109375 148.316406 C 267.875 153.367188 266.195312 158.269531 264.074219 163.019531 C 262.679688 166.109375 261.105469 169.101562 259.347656 172 C 257.589844 174.898438 255.667969 177.679688 253.574219 180.34375 C 251.484375 183.011719 249.238281 185.542969 246.839844 187.9375 C 244.445312 190.332031 241.910156 192.574219 239.242188 194.664062 C 236.574219 196.75 233.792969 198.671875 230.890625 200.425781 C 227.992188 202.179688 224.996094 203.75 221.90625 205.144531 C 218.816406 206.535156 215.65625 207.734375 212.421875 208.746094 C 209.1875 209.753906 205.902344 210.566406 202.570312 211.179688 C 201.796875 211.179688 201.0625 211.511719 200.253906 211.621094 C 196.027344 212.257812 191.773438 212.578125 187.496094 212.578125 L 186.46875 212.578125 C 182.535156 212.570312 178.625 212.261719 174.742188 211.660156 C 173.933594 211.660156 173.195312 211.363281 172.425781 211.21875 L 170.992188 210.921875 C 167.730469 210.265625 164.523438 209.421875 161.363281 208.382812 C 158.203125 207.347656 155.117188 206.128906 152.101562 204.726562 C 149.085938 203.324219 146.164062 201.75 143.335938 200 C 140.507812 198.25 137.792969 196.34375 135.191406 194.273438 C 132.589844 192.203125 130.117188 189.984375 127.78125 187.621094 C 125.441406 185.261719 123.25 182.765625 121.203125 180.144531 C 119.160156 177.523438 117.277344 174.789062 115.558594 171.941406 C 113.839844 169.097656 112.292969 166.160156 110.921875 163.132812 C 108.800781 158.378906 107.121094 153.480469 105.882812 148.425781 C 104.28125 141.90625 103.472656 135.289062 103.457031 128.574219 L 103.457031 21.960938 Z M 271.539062 21.851562 " fill-opacity="1" fill-rule="nonzero"/><path fill="#03f4ff" d="M 98.789062 4.058594 L 276.167969 4.058594 C 276.753906 4.058594 277.332031 4.113281 277.90625 4.230469 C 278.476562 4.34375 279.035156 4.511719 279.574219 4.734375 C 280.113281 4.957031 280.625 5.234375 281.113281 5.558594 C 281.597656 5.882812 282.046875 6.25 282.460938 6.664062 C 282.875 7.078125 283.242188 7.527344 283.566406 8.011719 C 283.890625 8.496094 284.164062 9.011719 284.390625 9.550781 C 284.613281 10.089844 284.78125 10.644531 284.894531 11.21875 C 285.007812 11.792969 285.066406 12.371094 285.066406 12.953125 C 285.066406 13.539062 285.007812 14.117188 284.894531 14.691406 C 284.78125 15.261719 284.613281 15.820312 284.390625 16.359375 C 284.164062 16.898438 283.890625 17.410156 283.566406 17.898438 C 283.242188 18.382812 282.875 18.832031 282.460938 19.246094 C 282.046875 19.660156 281.597656 20.027344 281.113281 20.351562 C 280.625 20.675781 280.113281 20.949219 279.574219 21.175781 C 279.035156 21.398438 278.476562 21.566406 277.90625 21.679688 C 277.332031 21.792969 276.753906 21.851562 276.167969 21.851562 L 98.789062 21.851562 C 98.203125 21.851562 97.625 21.792969 97.050781 21.679688 C 96.480469 21.566406 95.921875 21.398438 95.382812 21.175781 C 94.84375 20.949219 94.332031 20.675781 93.84375 20.351562 C 93.359375 20.027344 92.910156 19.660156 92.496094 19.246094 C 92.085938 18.832031 91.714844 18.382812 91.390625 17.898438 C 91.066406 17.410156 90.792969 16.898438 90.570312 16.359375 C 90.34375 15.820312 90.175781 15.261719 90.0625 14.691406 C 89.949219 14.117188 89.890625 13.539062 89.890625 12.953125 C 89.890625 12.371094 89.949219 11.792969 90.0625 11.21875 C 90.175781 10.644531 90.34375 10.089844 90.570312 9.550781 C 90.792969 9.011719 91.066406 8.496094 91.390625 8.011719 C 91.714844 7.527344 92.085938 7.078125 92.496094 6.664062 C 92.910156 6.25 93.359375 5.882812 93.84375 5.558594 C 94.332031 5.234375 94.84375 4.957031 95.382812 4.734375 C 95.921875 4.511719 96.480469 4.34375 97.050781 4.230469 C 97.625 4.113281 98.203125 4.058594 98.789062 4.058594 Z M 98.789062 4.058594 " fill-opacity="1" fill-rule="nonzero"/><g mask="url(#5e53a45d7e)"><g transform="matrix(1, 0, 0, 1, 88, 3)"><g clip-path="url(#c950e16765)"><path fill="#ffffff" d="M 10.789062 1.058594 L 188.167969 1.058594 C 188.753906 1.058594 189.332031 1.113281 189.90625 1.230469 C 190.476562 1.34375 191.035156 1.511719 191.574219 1.734375 C 192.113281 1.957031 192.625 2.234375 193.113281 2.558594 C 193.597656 2.882812 194.046875 3.25 194.460938 3.664062 C 194.875 4.078125 195.242188 4.527344 195.566406 5.011719 C 195.890625 5.496094 196.164062 6.011719 196.390625 6.550781 C 196.613281 7.089844 196.78125 7.644531 196.894531 8.21875 C 197.007812 8.792969 197.066406 9.371094 197.066406 9.953125 C 197.066406 10.539062 197.007812 11.117188 196.894531 11.691406 C 196.78125 12.261719 196.613281 12.820312 196.390625 13.359375 C 196.164062 13.898438 195.890625 14.410156 195.566406 14.898438 C 195.242188 15.382812 194.875 15.832031 194.460938 16.246094 C 194.046875 16.660156 193.597656 17.027344 193.113281 17.351562 C 192.625 17.675781 192.113281 17.949219 191.574219 18.175781 C 191.035156 18.398438 190.476562 18.566406 189.90625 18.679688 C 189.332031 18.792969 188.753906 18.851562 188.167969 18.851562 L 10.789062 18.851562 C 10.203125 18.851562 9.625 18.792969 9.050781 18.679688 C 8.480469 18.566406 7.921875 18.398438 7.382812 18.175781 C 6.84375 17.949219 6.332031 17.675781 5.84375 17.351562 C 5.359375 17.027344 4.910156 16.660156 4.496094 16.246094 C 4.085938 15.832031 3.714844 15.382812 3.390625 14.898438 C 3.066406 14.410156 2.792969 13.898438 2.570312 13.359375 C 2.34375 12.820312 2.175781 12.261719 2.0625 11.691406 C 1.949219 11.117188 1.890625 10.539062 1.890625 9.953125 C 1.890625 9.371094 1.949219 8.792969 2.0625 8.21875 C 2.175781 7.644531 2.34375 7.089844 2.570312 6.550781 C 2.792969 6.011719 3.066406 5.496094 3.390625 5.011719 C 3.714844 4.527344 4.085938 4.078125 4.496094 3.664062 C 4.910156 3.25 5.359375 2.882812 5.84375 2.558594 C 6.332031 2.234375 6.84375 1.957031 7.382812 1.734375 C 7.921875 1.511719 8.480469 1.34375 9.050781 1.230469 C 9.625 1.113281 10.203125 1.058594 10.789062 1.058594 Z M 10.789062 1.058594 " fill-opacity="1" fill-rule="nonzero"/></g></g></g><g clip-path="url(#2c37be0d7d)"><g mask="url(#4c12902ea2)"><g transform="matrix(1, 0, 0, 1, 168, 3)"><g clip-path="url(#59668800b9)"><path fill="#212120" d="M 92.105469 352.546875 L 85.671875 352.546875 L 85.671875 274.648438 L 69.089844 274.648438 L 69.089844 268.433594 C 69.089844 267.578125 69.007812 266.730469 68.839844 265.890625 C 68.671875 265.046875 68.425781 264.230469 68.097656 263.441406 C 67.769531 262.648438 67.367188 261.898438 66.890625 261.183594 C 66.414062 260.472656 65.875 259.8125 65.269531 259.207031 C 64.660156 258.601562 64.003906 258.058594 63.289062 257.582031 C 62.578125 257.109375 61.824219 256.707031 61.035156 256.378906 C 60.242188 256.050781 59.425781 255.800781 58.585938 255.636719 C 57.746094 255.46875 56.898438 255.382812 56.039062 255.382812 L 26.628906 255.382812 C 27.484375 255.382812 28.335938 255.46875 29.175781 255.636719 C 30.015625 255.800781 30.832031 256.050781 31.625 256.378906 C 32.414062 256.707031 33.167969 257.109375 33.878906 257.582031 C 34.59375 258.058594 35.25 258.601562 35.859375 259.207031 C 36.464844 259.8125 37.003906 260.472656 37.480469 261.183594 C 37.957031 261.898438 38.359375 262.648438 38.6875 263.441406 C 39.015625 264.230469 39.261719 265.046875 39.429688 265.890625 C 39.597656 266.730469 39.679688 267.578125 39.679688 268.433594 L 39.679688 274.648438 L 19.496094 274.648438 L 19.496094 352.546875 L 47.988281 352.546875 C 48.542969 352.511719 49.09375 352.53125 49.640625 352.605469 C 50.191406 352.683594 50.726562 352.8125 51.246094 353 C 51.769531 353.183594 52.265625 353.421875 52.738281 353.710938 C 53.210938 353.996094 53.652344 354.332031 54.054688 354.710938 C 54.460938 355.085938 54.824219 355.503906 55.144531 355.957031 C 55.460938 356.410156 55.730469 356.890625 55.953125 357.398438 C 56.171875 357.90625 56.339844 358.429688 56.453125 358.972656 C 56.566406 359.515625 56.621094 360.0625 56.621094 360.617188 C 56.621094 361.171875 56.566406 361.71875 56.453125 362.261719 C 56.339844 362.804688 56.171875 363.332031 55.953125 363.839844 C 55.730469 364.347656 55.460938 364.828125 55.144531 365.28125 C 54.824219 365.734375 54.460938 366.148438 54.054688 366.527344 C 53.652344 366.90625 53.210938 367.238281 52.738281 367.527344 C 52.265625 367.8125 51.769531 368.050781 51.246094 368.238281 C 50.726562 368.421875 50.191406 368.554688 49.640625 368.628906 C 49.09375 368.707031 48.542969 368.726562 47.988281 368.6875 L 92.105469 368.6875 C 92.65625 368.726562 93.207031 368.707031 93.757812 368.628906 C 94.304688 368.554688 94.839844 368.421875 95.363281 368.238281 C 95.882812 368.050781 96.382812 367.8125 96.855469 367.527344 C 97.328125 367.238281 97.765625 366.90625 98.171875 366.527344 C 98.578125 366.148438 98.9375 365.734375 99.257812 365.28125 C 99.578125 364.828125 99.847656 364.347656 100.066406 363.839844 C 100.289062 363.332031 100.457031 362.804688 100.566406 362.261719 C 100.679688 361.71875 100.738281 361.171875 100.738281 360.617188 C 100.738281 360.0625 100.679688 359.515625 100.566406 358.972656 C 100.457031 358.429688 100.289062 357.90625 100.066406 357.398438 C 99.847656 356.890625 99.578125 356.410156 99.257812 355.957031 C 98.9375 355.503906 98.578125 355.085938 98.171875 354.710938 C 97.765625 354.332031 97.328125 353.996094 96.855469 353.710938 C 96.382812 353.421875 95.882812 353.183594 95.363281 353 C 94.839844 352.8125 94.304688 352.683594 93.757812 352.605469 C 93.207031 352.53125 92.65625 352.511719 92.105469 352.546875 Z M 92.105469 352.546875 " fill-opacity="1" fill-rule="nonzero"/><path fill="#212120" d="M 108.207031 1.058594 L 64.089844 1.058594 C 64.675781 1.058594 65.253906 1.113281 65.828125 1.230469 C 66.398438 1.34375 66.957031 1.511719 67.496094 1.734375 C 68.035156 1.957031 68.546875 2.234375 69.035156 2.558594 C 69.519531 2.882812 69.96875 3.25 70.382812 3.664062 C 70.792969 4.078125 71.164062 4.527344 71.488281 5.011719 C 71.8125 5.496094 72.085938 6.011719 72.308594 6.550781 C 72.535156 7.089844 72.703125 7.644531 72.816406 8.21875 C 72.929688 8.792969 72.988281 9.371094 72.988281 9.953125 C 72.988281 10.539062 72.929688 11.117188 72.816406 11.691406 C 72.703125 12.261719 72.535156 12.820312 72.308594 13.359375 C 72.085938 13.898438 71.8125 14.410156 71.488281 14.898438 C 71.164062 15.382812 70.792969 15.832031 70.382812 16.246094 C 69.96875 16.660156 69.519531 17.027344 69.035156 17.351562 C 68.546875 17.675781 68.035156 17.949219 67.496094 18.175781 C 66.957031 18.398438 66.398438 18.566406 65.828125 18.679688 C 65.253906 18.792969 64.675781 18.851562 64.089844 18.851562 L 67.03125 18.851562 L 67.03125 125.464844 C 67.027344 127.832031 66.925781 130.199219 66.722656 132.5625 C 66.519531 134.921875 66.214844 137.269531 65.8125 139.605469 C 65.414062 141.941406 64.914062 144.257812 64.316406 146.550781 C 63.71875 148.84375 63.027344 151.109375 62.238281 153.34375 C 61.449219 155.578125 60.566406 157.777344 59.59375 159.9375 C 58.621094 162.097656 57.554688 164.214844 56.402344 166.285156 C 55.25 168.355469 54.011719 170.375 52.6875 172.339844 C 51.367188 174.308594 49.960938 176.214844 48.476562 178.0625 C 46.992188 179.910156 45.433594 181.691406 43.800781 183.40625 C 42.164062 185.125 40.460938 186.769531 38.6875 188.339844 C 36.914062 189.910156 35.074219 191.40625 33.175781 192.824219 C 31.277344 194.242188 29.320312 195.574219 27.308594 196.828125 C 25.292969 198.078125 23.234375 199.242188 21.121094 200.320312 C 19.011719 201.398438 16.859375 202.386719 14.664062 203.28125 C 12.46875 204.175781 10.242188 204.976562 7.980469 205.6875 C 5.71875 206.394531 3.429688 207.003906 1.117188 207.519531 L 2.878906 207.886719 L 3.175781 207.886719 L 4.3125 208.105469 C 4.3125 208.105469 4.3125 208.105469 4.496094 208.105469 L 6.628906 208.511719 C 7.992188 208.730469 9.386719 208.84375 10.785156 208.988281 C 12.082031 217.003906 13.90625 224.894531 16.261719 232.664062 C 21.886719 251.046875 26.628906 255.496094 26.628906 255.496094 L 50.453125 255.496094 C 50.453125 255.496094 45.710938 251.046875 40.121094 232.664062 C 37.71875 224.664062 35.867188 216.539062 34.570312 208.289062 C 37.902344 207.675781 41.1875 206.863281 44.421875 205.851562 C 47.660156 204.839844 50.820312 203.640625 53.910156 202.246094 C 57 200.851562 59.996094 199.28125 62.898438 197.523438 C 65.796875 195.769531 68.582031 193.847656 71.25 191.757812 C 73.917969 189.664062 76.449219 187.421875 78.847656 185.027344 C 81.246094 182.628906 83.488281 180.097656 85.582031 177.429688 C 87.671875 174.761719 89.59375 171.980469 91.351562 169.078125 C 93.105469 166.179688 94.679688 163.183594 96.074219 160.09375 C 98.195312 155.34375 99.875 150.441406 101.109375 145.390625 C 102.710938 138.867188 103.519531 132.25 103.539062 125.539062 L 103.539062 18.925781 L 108.207031 18.925781 C 108.789062 18.925781 109.367188 18.867188 109.941406 18.753906 C 110.515625 18.640625 111.070312 18.472656 111.609375 18.246094 C 112.152344 18.023438 112.664062 17.75 113.148438 17.425781 C 113.632812 17.101562 114.085938 16.730469 114.496094 16.320312 C 114.910156 15.90625 115.277344 15.457031 115.605469 14.972656 C 115.929688 14.484375 116.203125 13.972656 116.425781 13.433594 C 116.648438 12.894531 116.816406 12.335938 116.933594 11.765625 C 117.046875 11.191406 117.101562 10.613281 117.101562 10.027344 C 117.109375 9.441406 117.054688 8.859375 116.945312 8.28125 C 116.835938 7.707031 116.667969 7.144531 116.445312 6.601562 C 116.226562 6.058594 115.953125 5.539062 115.628906 5.050781 C 115.304688 4.558594 114.9375 4.105469 114.523438 3.691406 C 114.109375 3.273438 113.660156 2.898438 113.171875 2.574219 C 112.683594 2.246094 112.171875 1.96875 111.628906 1.742188 C 111.085938 1.515625 110.527344 1.347656 109.949219 1.230469 C 109.375 1.117188 108.792969 1.058594 108.207031 1.058594 Z M 108.207031 1.058594 " fill-opacity="1" fill-rule="nonzero"/></g></g></g></g><g mask="url(#e00d316fc9)"><g transform="matrix(1, 0, 0, 1, 102, 3)"><g clip-path="url(#4064473e6a)"><path fill="#ffffff" d="M 30.867188 118.074219 C 31.230469 118.074219 31.589844 118.039062 31.941406 117.96875 C 32.296875 117.898438 32.644531 117.792969 32.976562 117.65625 C 33.3125 117.515625 33.628906 117.347656 33.929688 117.144531 C 34.230469 116.945312 34.511719 116.714844 34.765625 116.460938 C 35.023438 116.203125 35.25 115.925781 35.453125 115.625 C 35.652344 115.324219 35.824219 115.003906 35.960938 114.671875 C 36.101562 114.335938 36.207031 113.992188 36.277344 113.636719 C 36.347656 113.28125 36.382812 112.921875 36.382812 112.558594 L 36.382812 48.261719 C 36.382812 47.898438 36.347656 47.539062 36.277344 47.1875 C 36.207031 46.832031 36.101562 46.484375 35.960938 46.152344 C 35.824219 45.816406 35.652344 45.5 35.453125 45.199219 C 35.25 44.898438 35.023438 44.617188 34.765625 44.363281 C 34.511719 44.105469 34.230469 43.878906 33.929688 43.675781 C 33.628906 43.476562 33.3125 43.304688 32.976562 43.167969 C 32.644531 43.027344 32.296875 42.921875 31.941406 42.851562 C 31.589844 42.78125 31.230469 42.746094 30.867188 42.746094 C 30.503906 42.746094 30.148438 42.78125 29.792969 42.851562 C 29.4375 42.921875 29.089844 43.027344 28.757812 43.167969 C 28.421875 43.304688 28.105469 43.476562 27.804688 43.675781 C 27.503906 43.878906 27.222656 44.105469 26.96875 44.363281 C 26.710938 44.617188 26.484375 44.898438 26.28125 45.199219 C 26.082031 45.5 25.910156 45.816406 25.773438 46.152344 C 25.632812 46.484375 25.53125 46.832031 25.460938 47.1875 C 25.386719 47.539062 25.351562 47.898438 25.351562 48.261719 L 25.351562 112.558594 C 25.351562 112.921875 25.386719 113.28125 25.460938 113.636719 C 25.53125 113.992188 25.632812 114.335938 25.773438 114.671875 C 25.910156 115.003906 26.082031 115.324219 26.28125 115.625 C 26.484375 115.925781 26.710938 116.203125 26.96875 116.460938 C 27.222656 116.714844 27.503906 116.945312 27.804688 117.144531 C 28.105469 117.347656 28.421875 117.515625 28.757812 117.65625 C 29.089844 117.792969 29.4375 117.898438 29.792969 117.96875 C 30.148438 118.039062 30.503906 118.074219 30.867188 118.074219 Z M 30.867188 118.074219 " fill-opacity="1" fill-rule="nonzero"/><path fill="#ffffff" d="M 37.707031 137.082031 C 36.769531 133.265625 36.292969 129.390625 36.273438 125.464844 C 36.273438 125.101562 36.238281 124.742188 36.164062 124.386719 C 36.09375 124.03125 35.992188 123.6875 35.851562 123.351562 C 35.714844 123.019531 35.542969 122.699219 35.34375 122.398438 C 35.140625 122.097656 34.914062 121.820312 34.65625 121.566406 C 34.402344 121.308594 34.121094 121.078125 33.820312 120.878906 C 33.519531 120.675781 33.203125 120.507812 32.867188 120.367188 C 32.53125 120.230469 32.1875 120.125 31.832031 120.054688 C 31.476562 119.984375 31.121094 119.949219 30.757812 119.949219 C 30.394531 119.949219 30.035156 119.984375 29.679688 120.054688 C 29.328125 120.125 28.980469 120.230469 28.648438 120.367188 C 28.3125 120.507812 27.996094 120.675781 27.695312 120.878906 C 27.390625 121.078125 27.113281 121.308594 26.859375 121.566406 C 26.601562 121.820312 26.375 122.097656 26.171875 122.398438 C 25.972656 122.699219 25.800781 123.019531 25.664062 123.351562 C 25.523438 123.6875 25.417969 124.03125 25.347656 124.386719 C 25.277344 124.742188 25.242188 125.101562 25.242188 125.464844 C 25.261719 130.277344 25.851562 135.019531 27.007812 139.691406 C 27.902344 143.300781 29.128906 146.792969 30.683594 150.167969 C 30.898438 150.652344 31.175781 151.09375 31.519531 151.496094 C 31.863281 151.898438 32.257812 152.242188 32.703125 152.53125 C 33.144531 152.816406 33.621094 153.035156 34.128906 153.183594 C 34.636719 153.332031 35.15625 153.40625 35.683594 153.402344 C 35.914062 153.402344 36.144531 153.390625 36.371094 153.363281 C 36.597656 153.335938 36.824219 153.292969 37.046875 153.234375 C 37.269531 153.179688 37.488281 153.109375 37.703125 153.027344 C 37.917969 152.941406 38.125 152.847656 38.328125 152.734375 C 38.53125 152.625 38.726562 152.503906 38.914062 152.371094 C 39.097656 152.238281 39.277344 152.089844 39.445312 151.933594 C 39.613281 151.777344 39.773438 151.613281 39.921875 151.4375 C 40.070312 151.261719 40.207031 151.074219 40.332031 150.882812 C 40.453125 150.6875 40.566406 150.488281 40.667969 150.28125 C 40.765625 150.074219 40.851562 149.863281 40.925781 149.644531 C 41 149.425781 41.058594 149.203125 41.105469 148.976562 C 41.148438 148.753906 41.179688 148.523438 41.199219 148.296875 C 41.214844 148.066406 41.21875 147.835938 41.207031 147.605469 C 41.195312 147.378906 41.167969 147.148438 41.128906 146.921875 C 41.085938 146.695312 41.035156 146.472656 40.964844 146.253906 C 40.898438 146.035156 40.816406 145.820312 40.71875 145.609375 C 39.453125 142.859375 38.449219 140.015625 37.707031 137.082031 Z M 37.707031 137.082031 " fill-opacity="1" fill-rule="nonzero"/><path fill="#ffffff" d="M 65.460938 4.441406 L 6.640625 4.441406 C 6.277344 4.441406 5.921875 4.476562 5.566406 4.546875 C 5.210938 4.617188 4.863281 4.722656 4.53125 4.859375 C 4.195312 5 3.878906 5.167969 3.578125 5.371094 C 3.277344 5.570312 2.996094 5.800781 2.742188 6.054688 C 2.484375 6.3125 2.257812 6.589844 2.054688 6.890625 C 1.855469 7.191406 1.683594 7.507812 1.546875 7.84375 C 1.40625 8.179688 1.304688 8.523438 1.230469 8.878906 C 1.160156 9.234375 1.125 9.59375 1.125 9.953125 C 1.125 10.316406 1.160156 10.675781 1.230469 11.03125 C 1.304688 11.386719 1.40625 11.730469 1.546875 12.066406 C 1.683594 12.398438 1.855469 12.71875 2.054688 13.019531 C 2.257812 13.320312 2.484375 13.597656 2.742188 13.855469 C 2.996094 14.109375 3.277344 14.339844 3.578125 14.539062 C 3.878906 14.742188 4.195312 14.910156 4.53125 15.050781 C 4.863281 15.1875 5.210938 15.292969 5.566406 15.363281 C 5.921875 15.433594 6.277344 15.46875 6.640625 15.46875 L 65.460938 15.46875 C 65.824219 15.46875 66.183594 15.433594 66.539062 15.363281 C 66.890625 15.292969 67.238281 15.1875 67.570312 15.050781 C 67.90625 14.910156 68.222656 14.742188 68.523438 14.539062 C 68.828125 14.339844 69.105469 14.109375 69.359375 13.855469 C 69.617188 13.597656 69.84375 13.320312 70.046875 13.019531 C 70.246094 12.71875 70.417969 12.398438 70.554688 12.066406 C 70.695312 11.730469 70.800781 11.386719 70.871094 11.03125 C 70.941406 10.675781 70.976562 10.316406 70.976562 9.953125 C 70.976562 9.59375 70.941406 9.234375 70.871094 8.878906 C 70.800781 8.523438 70.695312 8.179688 70.554688 7.84375 C 70.417969 7.507812 70.246094 7.191406 70.046875 6.890625 C 69.84375 6.589844 69.617188 6.3125 69.359375 6.054688 C 69.105469 5.800781 68.828125 5.570312 68.523438 5.371094 C 68.222656 5.167969 67.90625 5 67.570312 4.859375 C 67.238281 4.722656 66.890625 4.617188 66.539062 4.546875 C 66.183594 4.476562 65.824219 4.441406 65.460938 4.441406 Z M 65.460938 4.441406 " fill-opacity="1" fill-rule="nonzero"/><path fill="#ffffff" d="M 105.460938 4.441406 L 80.976562 4.441406 C 80.613281 4.441406 80.253906 4.476562 79.898438 4.546875 C 79.542969 4.617188 79.199219 4.722656 78.863281 4.859375 C 78.53125 5 78.210938 5.167969 77.910156 5.371094 C 77.609375 5.570312 77.332031 5.800781 77.074219 6.054688 C 76.820312 6.3125 76.589844 6.589844 76.390625 6.890625 C 76.1875 7.191406 76.019531 7.507812 75.878906 7.84375 C 75.742188 8.179688 75.636719 8.523438 75.566406 8.878906 C 75.496094 9.234375 75.460938 9.59375 75.460938 9.953125 C 75.460938 10.316406 75.496094 10.675781 75.566406 11.03125 C 75.636719 11.386719 75.742188 11.730469 75.878906 12.066406 C 76.019531 12.398438 76.1875 12.71875 76.390625 13.019531 C 76.589844 13.320312 76.820312 13.597656 77.078125 13.855469 C 77.332031 14.109375 77.609375 14.339844 77.910156 14.539062 C 78.210938 14.742188 78.53125 14.910156 78.863281 15.050781 C 79.199219 15.1875 79.542969 15.292969 79.898438 15.363281 C 80.253906 15.433594 80.613281 15.46875 80.976562 15.46875 L 105.460938 15.46875 C 105.820312 15.46875 106.179688 15.433594 106.535156 15.363281 C 106.890625 15.292969 107.234375 15.1875 107.570312 15.050781 C 107.90625 14.910156 108.222656 14.742188 108.523438 14.539062 C 108.824219 14.339844 109.101562 14.109375 109.359375 13.855469 C 109.613281 13.597656 109.84375 13.320312 110.042969 13.019531 C 110.246094 12.71875 110.414062 12.398438 110.554688 12.066406 C 110.691406 11.730469 110.796875 11.386719 110.867188 11.03125 C 110.9375 10.675781 110.972656 10.316406 110.972656 9.953125 C 110.972656 9.59375 110.9375 9.234375 110.867188 8.878906 C 110.796875 8.523438 110.691406 8.179688 110.554688 7.84375 C 110.414062 7.507812 110.246094 7.191406 110.042969 6.890625 C 109.84375 6.589844 109.613281 6.3125 109.359375 6.054688 C 109.101562 5.800781 108.824219 5.570312 108.523438 5.371094 C 108.222656 5.167969 107.90625 5 107.570312 4.859375 C 107.234375 4.722656 106.890625 4.617188 106.535156 4.546875 C 106.179688 4.476562 105.820312 4.441406 105.460938 4.441406 Z M 105.460938 4.441406 " fill-opacity="1" fill-rule="nonzero"/></g></g></g><path fill="#212120" d="M 133.199219 343.601562 L 241.796875 343.601562 L 241.796875 289.597656 L 133.199219 289.597656 Z M 138.710938 295.109375 L 236.28125 295.109375 L 236.28125 338.085938 L 138.710938 338.085938 Z M 138.710938 295.109375 " fill-opacity="1" fill-rule="nonzero"/><g clip-path="url(#c12e673069)"><path fill="#212120" d="M 354.402344 37.144531 C 354.335938 36.25 354.152344 35.378906 353.855469 34.535156 C 353.554688 33.6875 353.152344 32.898438 352.640625 32.160156 C 352.128906 31.421875 351.53125 30.765625 350.84375 30.191406 C 350.15625 29.613281 349.40625 29.136719 348.59375 28.761719 C 347.777344 28.386719 346.929688 28.125 346.042969 27.976562 C 345.160156 27.832031 344.269531 27.800781 343.378906 27.890625 C 342.488281 27.984375 341.621094 28.1875 340.785156 28.511719 C 339.949219 28.832031 339.167969 29.261719 338.445312 29.792969 C 338.445312 29.792969 328.1875 37.144531 307.96875 39.128906 C 291.648438 40.820312 279.734375 41.113281 274.292969 41.1875 L 274.292969 24.644531 L 276.207031 24.644531 C 276.972656 24.644531 277.730469 24.570312 278.480469 24.421875 C 279.230469 24.273438 279.960938 24.050781 280.667969 23.757812 C 281.371094 23.464844 282.042969 23.105469 282.679688 22.679688 C 283.316406 22.257812 283.90625 21.773438 284.445312 21.230469 C 284.988281 20.691406 285.472656 20.101562 285.894531 19.464844 C 286.320312 18.828125 286.679688 18.15625 286.972656 17.449219 C 287.265625 16.742188 287.488281 16.015625 287.636719 15.265625 C 287.785156 14.515625 287.859375 13.757812 287.859375 12.992188 C 287.859375 12.226562 287.785156 11.46875 287.636719 10.71875 C 287.488281 9.96875 287.265625 9.238281 286.972656 8.53125 C 286.679688 7.824219 286.320312 7.152344 285.894531 6.515625 C 285.472656 5.878906 284.988281 5.292969 284.445312 4.75 C 283.90625 4.210938 283.316406 3.726562 282.679688 3.300781 C 282.042969 2.875 281.371094 2.515625 280.667969 2.222656 C 279.960938 1.933594 279.230469 1.710938 278.480469 1.5625 C 277.730469 1.410156 276.972656 1.335938 276.207031 1.335938 L 98.789062 1.335938 C 98.023438 1.335938 97.265625 1.410156 96.515625 1.5625 C 95.765625 1.710938 95.035156 1.933594 94.328125 2.222656 C 93.621094 2.515625 92.949219 2.875 92.3125 3.300781 C 91.675781 3.726562 91.089844 4.210938 90.546875 4.75 C 90.007812 5.292969 89.523438 5.878906 89.097656 6.515625 C 88.671875 7.152344 88.3125 7.824219 88.023438 8.53125 C 87.730469 9.238281 87.507812 9.96875 87.359375 10.71875 C 87.210938 11.46875 87.132812 12.226562 87.132812 12.992188 C 87.132812 13.757812 87.210938 14.515625 87.359375 15.265625 C 87.507812 16.015625 87.730469 16.742188 88.023438 17.449219 C 88.3125 18.15625 88.671875 18.828125 89.097656 19.464844 C 89.523438 20.101562 90.007812 20.691406 90.546875 21.230469 C 91.089844 21.773438 91.675781 22.257812 92.3125 22.679688 C 92.949219 23.105469 93.621094 23.464844 94.328125 23.757812 C 95.035156 24.050781 95.765625 24.273438 96.515625 24.421875 C 97.265625 24.570312 98.023438 24.644531 98.789062 24.644531 L 100.699219 24.644531 L 100.699219 41.152344 C 95.480469 41.152344 83.457031 40.820312 67.023438 39.128906 C 46.878906 37.144531 36.769531 29.792969 36.769531 29.792969 C 36.046875 29.222656 35.265625 28.765625 34.417969 28.414062 C 33.570312 28.058594 32.691406 27.828125 31.78125 27.71875 C 30.871094 27.609375 29.960938 27.625 29.054688 27.765625 C 28.148438 27.902344 27.277344 28.164062 26.441406 28.542969 C 25.609375 28.921875 24.839844 29.40625 24.136719 30 C 23.4375 30.589844 22.828125 31.265625 22.3125 32.023438 C 21.796875 32.78125 21.390625 33.597656 21.101562 34.464844 C 20.808594 35.335938 20.640625 36.226562 20.59375 37.144531 C 20.371094 39.792969 15.777344 102.621094 40.960938 135.523438 C 61.179688 161.953125 94.230469 165.703125 109.191406 165.960938 C 110.617188 168.9375 112.210938 171.820312 113.964844 174.609375 C 115.71875 177.402344 117.625 180.085938 119.6875 182.664062 C 121.746094 185.238281 123.945312 187.6875 126.285156 190.015625 C 128.625 192.339844 131.089844 194.523438 133.675781 196.570312 C 136.265625 198.613281 138.960938 200.503906 141.761719 202.242188 C 144.566406 203.980469 147.457031 205.554688 150.441406 206.964844 C 153.421875 208.371094 156.476562 209.609375 159.597656 210.667969 C 162.71875 211.730469 165.894531 212.613281 169.117188 213.3125 C 167.917969 220.5625 166.265625 227.707031 164.152344 234.746094 C 162.324219 242.203125 159.335938 249.164062 155.183594 255.625 L 150.953125 255.625 C 149.917969 255.628906 148.890625 255.734375 147.875 255.9375 C 146.855469 256.140625 145.867188 256.441406 144.910156 256.839844 C 143.953125 257.238281 143.042969 257.726562 142.179688 258.300781 C 141.320312 258.878906 140.519531 259.535156 139.789062 260.269531 C 139.054688 261 138.398438 261.800781 137.824219 262.660156 C 137.246094 263.523438 136.757812 264.433594 136.359375 265.390625 C 135.960938 266.347656 135.660156 267.335938 135.457031 268.351562 C 135.253906 269.371094 135.148438 270.398438 135.148438 271.433594 L 135.148438 274.890625 L 118.492188 274.890625 L 118.492188 352.792969 L 114.816406 352.792969 C 114.078125 352.75 113.34375 352.78125 112.613281 352.886719 C 111.882812 352.996094 111.171875 353.175781 110.476562 353.425781 C 109.78125 353.679688 109.121094 354 108.492188 354.386719 C 107.863281 354.773438 107.28125 355.222656 106.742188 355.730469 C 106.207031 356.234375 105.726562 356.792969 105.300781 357.398438 C 104.878906 358.003906 104.519531 358.644531 104.226562 359.324219 C 103.933594 360 103.714844 360.703125 103.566406 361.425781 C 103.414062 362.148438 103.339844 362.878906 103.339844 363.617188 C 103.339844 364.355469 103.414062 365.085938 103.566406 365.8125 C 103.714844 366.535156 103.933594 367.234375 104.226562 367.914062 C 104.519531 368.59375 104.878906 369.234375 105.300781 369.839844 C 105.726562 370.445312 106.207031 371 106.742188 371.507812 C 107.28125 372.011719 107.863281 372.460938 108.492188 372.847656 C 109.121094 373.238281 109.78125 373.558594 110.476562 373.808594 C 111.171875 374.0625 111.882812 374.242188 112.613281 374.347656 C 113.34375 374.457031 114.078125 374.488281 114.816406 374.445312 L 260.03125 374.445312 C 260.769531 374.488281 261.503906 374.457031 262.234375 374.347656 C 262.964844 374.242188 263.675781 374.0625 264.371094 373.808594 C 265.066406 373.558594 265.726562 373.238281 266.355469 372.847656 C 266.984375 372.460938 267.566406 372.011719 268.105469 371.507812 C 268.640625 371 269.121094 370.445312 269.546875 369.839844 C 269.96875 369.234375 270.328125 368.59375 270.621094 367.914062 C 270.914062 367.234375 271.132812 366.535156 271.28125 365.8125 C 271.433594 365.085938 271.507812 364.355469 271.507812 363.617188 C 271.507812 362.878906 271.433594 362.148438 271.28125 361.425781 C 271.132812 360.703125 270.914062 360 270.621094 359.324219 C 270.328125 358.644531 269.96875 358.003906 269.546875 357.398438 C 269.121094 356.792969 268.640625 356.234375 268.105469 355.730469 C 267.566406 355.222656 266.984375 354.773438 266.355469 354.386719 C 265.726562 354 265.066406 353.679688 264.371094 353.425781 C 263.675781 353.175781 262.964844 352.996094 262.234375 352.886719 C 261.503906 352.78125 260.769531 352.75 260.03125 352.792969 L 256.355469 352.792969 L 256.355469 274.890625 L 239.847656 274.890625 L 239.847656 271.433594 C 239.84375 270.398438 239.742188 269.371094 239.539062 268.351562 C 239.332031 267.335938 239.03125 266.347656 238.632812 265.390625 C 238.238281 264.433594 237.75 263.523438 237.171875 262.660156 C 236.59375 261.800781 235.941406 261 235.207031 260.269531 C 234.472656 259.535156 233.675781 258.878906 232.8125 258.300781 C 231.953125 257.726562 231.042969 257.238281 230.082031 256.839844 C 229.125 256.441406 228.136719 256.140625 227.121094 255.9375 C 226.105469 255.734375 225.078125 255.628906 224.039062 255.625 L 219.738281 255.625 C 215.605469 249.15625 212.617188 242.195312 210.769531 234.746094 C 208.683594 227.703125 207.054688 220.558594 205.878906 213.3125 C 209.105469 212.609375 212.285156 211.726562 215.410156 210.664062 C 218.535156 209.597656 221.59375 208.359375 224.578125 206.945312 C 227.5625 205.535156 230.457031 203.953125 233.261719 202.210938 C 236.066406 200.46875 238.765625 198.570312 241.351562 196.519531 C 243.941406 194.464844 246.40625 192.273438 248.742188 189.941406 C 251.082031 187.609375 253.277344 185.148438 255.335938 182.566406 C 257.394531 179.984375 259.296875 177.289062 261.046875 174.488281 C 262.796875 171.6875 264.382812 168.796875 265.800781 165.816406 C 280.765625 165.558594 313.816406 161.808594 334.035156 135.375 C 359.21875 102.472656 354.621094 39.644531 354.402344 37.144531 Z M 274.292969 128.539062 L 274.292969 61.152344 C 279.625 61.152344 292.234375 60.820312 310.027344 59.019531 C 318.523438 58.199219 326.792969 56.375 334.84375 53.539062 C 334.84375 73.28125 332.011719 105.007812 318.152344 123.390625 C 305.765625 139.566406 285.582031 144.234375 272.566406 145.449219 C 273.707031 139.867188 274.285156 134.230469 274.292969 128.539062 Z M 98.789062 19.09375 C 98.386719 19.09375 97.984375 19.054688 97.589844 18.976562 C 97.195312 18.898438 96.8125 18.78125 96.4375 18.625 C 96.066406 18.472656 95.710938 18.285156 95.378906 18.058594 C 95.042969 17.835938 94.730469 17.582031 94.445312 17.296875 C 94.160156 17.011719 93.90625 16.699219 93.683594 16.367188 C 93.460938 16.03125 93.269531 15.675781 93.117188 15.304688 C 92.960938 14.929688 92.84375 14.546875 92.765625 14.152344 C 92.6875 13.757812 92.648438 13.359375 92.648438 12.953125 C 92.648438 12.550781 92.6875 12.152344 92.765625 11.757812 C 92.84375 11.363281 92.960938 10.976562 93.117188 10.605469 C 93.269531 10.234375 93.460938 9.878906 93.683594 9.542969 C 93.90625 9.207031 94.160156 8.898438 94.445312 8.613281 C 94.730469 8.328125 95.042969 8.074219 95.378906 7.851562 C 95.710938 7.625 96.066406 7.4375 96.4375 7.28125 C 96.8125 7.128906 97.195312 7.011719 97.589844 6.933594 C 97.984375 6.855469 98.386719 6.816406 98.789062 6.816406 L 276.207031 6.816406 C 276.609375 6.816406 277.007812 6.855469 277.402344 6.933594 C 277.800781 7.011719 278.183594 7.128906 278.554688 7.28125 C 278.929688 7.4375 279.28125 7.625 279.617188 7.851562 C 279.953125 8.074219 280.261719 8.328125 280.546875 8.613281 C 280.832031 8.898438 281.085938 9.207031 281.3125 9.542969 C 281.535156 9.878906 281.722656 10.234375 281.878906 10.605469 C 282.03125 10.976562 282.148438 11.363281 282.226562 11.757812 C 282.304688 12.152344 282.347656 12.550781 282.347656 12.953125 C 282.347656 13.359375 282.304688 13.757812 282.226562 14.152344 C 282.148438 14.546875 282.03125 14.929688 281.878906 15.304688 C 281.722656 15.675781 281.535156 16.03125 281.3125 16.367188 C 281.085938 16.699219 280.832031 17.011719 280.546875 17.296875 C 280.261719 17.582031 279.953125 17.835938 279.617188 18.058594 C 279.28125 18.285156 278.929688 18.472656 278.554688 18.625 C 278.183594 18.78125 277.800781 18.898438 277.402344 18.976562 C 277.007812 19.054688 276.609375 19.09375 276.207031 19.09375 Z M 102.464844 145.375 C 89.449219 144.089844 69.378906 139.417969 56.878906 123.316406 C 43.054688 105.191406 40.410156 73.394531 40.226562 53.46875 C 48.238281 56.386719 56.484375 58.296875 64.964844 59.203125 C 82.6875 61.003906 95.296875 61.296875 100.699219 61.335938 L 100.699219 128.539062 C 100.714844 134.207031 101.292969 139.820312 102.429688 145.375 Z M 45.335938 132.03125 C 21.4375 100.78125 25.886719 40.121094 26.109375 37.4375 C 26.175781 36.628906 26.449219 35.894531 26.921875 35.234375 C 27.398438 34.574219 28.007812 34.085938 28.753906 33.761719 C 29.324219 33.496094 29.925781 33.359375 30.554688 33.359375 C 31.59375 33.371094 32.523438 33.691406 33.351562 34.3125 C 33.792969 34.644531 44.601562 42.402344 66.4375 44.679688 C 83.128906 46.371094 95.183594 46.703125 100.664062 46.703125 L 100.664062 55.527344 C 95.371094 55.527344 82.945312 55.195312 65.519531 53.394531 C 56.171875 52.539062 47.140625 50.371094 38.421875 46.886719 L 34.746094 45.304688 L 34.746094 49.386719 C 34.746094 69.3125 36.769531 105.78125 52.578125 126.589844 C 66.804688 145.191406 90.039062 149.933594 104.046875 151.035156 C 104.304688 151.957031 104.632812 152.949219 104.925781 153.902344 C 104.925781 154.234375 104.925781 154.566406 105.222656 154.894531 C 105.738281 156.476562 106.289062 158.058594 106.914062 159.710938 L 107.132812 160.226562 C 91.914062 159.640625 63.054688 155.226562 45.335938 132.03125 Z M 260.105469 358.304688 C 260.472656 358.273438 260.839844 358.28125 261.203125 358.328125 C 261.570312 358.375 261.925781 358.457031 262.277344 358.574219 C 262.625 358.695312 262.957031 358.847656 263.273438 359.039062 C 263.589844 359.226562 263.882812 359.445312 264.15625 359.695312 C 264.425781 359.945312 264.671875 360.21875 264.882812 360.519531 C 265.097656 360.820312 265.28125 361.136719 265.429688 361.476562 C 265.574219 361.8125 265.6875 362.164062 265.761719 362.523438 C 265.839844 362.882812 265.878906 363.25 265.878906 363.617188 C 265.878906 363.988281 265.839844 364.351562 265.761719 364.710938 C 265.6875 365.074219 265.574219 365.421875 265.429688 365.761719 C 265.28125 366.097656 265.097656 366.417969 264.882812 366.714844 C 264.671875 367.015625 264.425781 367.289062 264.15625 367.539062 C 263.882812 367.789062 263.589844 368.007812 263.273438 368.199219 C 262.957031 368.386719 262.625 368.539062 262.277344 368.660156 C 261.925781 368.78125 261.570312 368.863281 261.203125 368.90625 C 260.839844 368.953125 260.472656 368.960938 260.105469 368.929688 L 114.890625 368.929688 C 114.523438 368.960938 114.15625 368.953125 113.789062 368.90625 C 113.425781 368.863281 113.066406 368.78125 112.71875 368.660156 C 112.371094 368.539062 112.039062 368.386719 111.71875 368.199219 C 111.402344 368.007812 111.109375 367.789062 110.839844 367.539062 C 110.566406 367.292969 110.324219 367.015625 110.109375 366.714844 C 109.894531 366.417969 109.714844 366.097656 109.566406 365.761719 C 109.417969 365.421875 109.308594 365.074219 109.230469 364.710938 C 109.15625 364.351562 109.117188 363.988281 109.117188 363.617188 C 109.117188 363.25 109.15625 362.882812 109.230469 362.523438 C 109.308594 362.164062 109.417969 361.8125 109.566406 361.476562 C 109.714844 361.140625 109.894531 360.820312 110.109375 360.519531 C 110.324219 360.21875 110.566406 359.945312 110.839844 359.695312 C 111.109375 359.445312 111.402344 359.226562 111.71875 359.039062 C 112.039062 358.847656 112.371094 358.695312 112.71875 358.574219 C 113.066406 358.457031 113.425781 358.375 113.789062 358.328125 C 114.15625 358.28125 114.523438 358.273438 114.890625 358.304688 Z M 250.988281 280.40625 L 250.988281 352.792969 L 124.007812 352.792969 L 124.007812 280.40625 Z M 234.332031 271.433594 L 234.332031 274.890625 L 140.660156 274.890625 L 140.660156 271.433594 C 140.664062 270.757812 140.730469 270.089844 140.863281 269.429688 C 141 268.765625 141.195312 268.125 141.453125 267.5 C 141.714844 266.878906 142.03125 266.285156 142.40625 265.726562 C 142.78125 265.164062 143.210938 264.644531 143.6875 264.167969 C 144.164062 263.691406 144.683594 263.261719 145.246094 262.886719 C 145.804688 262.511719 146.398438 262.195312 147.019531 261.933594 C 147.644531 261.675781 148.289062 261.480469 148.949219 261.34375 C 149.609375 261.210938 150.28125 261.144531 150.953125 261.140625 L 224.039062 261.140625 C 224.714844 261.144531 225.382812 261.210938 226.046875 261.34375 C 226.707031 261.480469 227.351562 261.675781 227.972656 261.933594 C 228.597656 262.195312 229.1875 262.511719 229.75 262.886719 C 230.3125 263.261719 230.832031 263.691406 231.308594 264.167969 C 231.785156 264.644531 232.210938 265.164062 232.585938 265.726562 C 232.964844 266.285156 233.28125 266.878906 233.539062 267.5 C 233.800781 268.125 233.996094 268.765625 234.128906 269.429688 C 234.261719 270.089844 234.332031 270.757812 234.332031 271.433594 Z M 213.230469 255.625 L 161.761719 255.625 C 165.035156 249.484375 167.609375 243.066406 169.484375 236.363281 C 171.65625 229.117188 173.375 221.765625 174.628906 214.304688 C 176.46875 214.5625 178.304688 214.746094 180.179688 214.894531 L 183.710938 214.894531 C 184.738281 214.894531 185.769531 214.894531 186.796875 214.894531 L 192.792969 214.894531 C 194.410156 214.894531 196.0625 214.636719 197.863281 214.414062 L 198.820312 214.414062 L 200.289062 214.230469 C 201.550781 221.691406 203.265625 229.042969 205.4375 236.289062 C 207.332031 243.019531 209.929688 249.464844 213.230469 255.625 Z M 202.203125 208.460938 L 201.578125 208.460938 L 199.996094 208.753906 L 197.421875 208.753906 L 192.644531 209.195312 L 186.320312 209.195312 C 184.484375 209.195312 182.644531 209.195312 180.878906 208.976562 C 179.117188 208.753906 176.945312 208.605469 174.703125 208.238281 L 173.453125 208.019531 L 172.683594 208.019531 C 172.246094 207.949219 171.816406 207.851562 171.394531 207.726562 C 168.265625 207.101562 165.179688 206.296875 162.144531 205.308594 C 159.109375 204.320312 156.140625 203.160156 153.242188 201.824219 C 150.339844 200.488281 147.527344 198.988281 144.804688 197.324219 C 142.082031 195.65625 139.464844 193.835938 136.957031 191.863281 C 134.445312 189.890625 132.0625 187.777344 129.800781 185.523438 C 127.539062 183.269531 125.417969 180.890625 123.433594 178.390625 C 121.453125 175.886719 119.625 173.277344 117.949219 170.558594 C 116.273438 167.839844 114.765625 165.035156 113.421875 162.136719 C 112.980469 161.144531 112.574219 160.078125 112.207031 159.015625 L 111.765625 157.910156 C 111.765625 157.46875 111.472656 157.066406 111.324219 156.585938 C 110.355469 154.058594 109.523438 151.484375 108.824219 148.867188 L 108.347656 146.882812 C 106.949219 140.910156 106.238281 134.855469 106.214844 128.722656 L 106.214844 43.761719 L 106.472656 41.152344 L 106.214844 41.152344 L 106.214844 24.609375 L 268.78125 24.609375 L 268.78125 128.539062 C 268.761719 134.75 268.023438 140.878906 266.574219 146.917969 L 266.207031 148.460938 C 265.402344 151.558594 264.421875 154.597656 263.265625 157.578125 L 262.863281 158.644531 C 262.457031 159.710938 262.050781 160.816406 261.574219 161.882812 C 260.230469 164.867188 258.710938 167.757812 257.015625 170.558594 C 255.324219 173.359375 253.464844 176.050781 251.449219 178.628906 C 249.429688 181.203125 247.261719 183.652344 244.949219 185.964844 C 242.636719 188.28125 240.191406 190.449219 237.617188 192.472656 C 235.039062 194.492188 232.351562 196.351562 229.550781 198.046875 C 226.753906 199.742188 223.859375 201.261719 220.878906 202.609375 C 217.894531 203.957031 214.839844 205.121094 211.714844 206.097656 C 208.59375 207.078125 205.421875 207.863281 202.203125 208.460938 Z M 329.808594 132.03125 C 311.941406 155.226562 283.082031 159.640625 268.15625 160.226562 L 268.414062 159.601562 C 269.039062 157.984375 269.589844 156.441406 270.066406 154.894531 L 270.472656 153.609375 C 270.730469 152.726562 271.023438 151.882812 271.242188 151.035156 C 285.066406 149.933594 308.300781 145.152344 322.710938 126.589844 C 338.554688 105.855469 340.6875 69.386719 340.542969 49.386719 L 340.542969 45.417969 L 336.863281 46.960938 C 328.15625 50.476562 319.125 52.65625 309.769531 53.503906 C 291.867188 55.527344 279.40625 55.527344 274.292969 55.527344 L 274.292969 46.628906 C 279.625 46.628906 291.832031 46.296875 308.519531 44.609375 C 330.578125 42.328125 341.609375 34.277344 341.609375 34.203125 C 342.265625 33.707031 343.003906 33.417969 343.820312 33.332031 C 344.640625 33.246094 345.421875 33.378906 346.167969 33.726562 C 346.90625 34.050781 347.511719 34.542969 347.980469 35.203125 C 348.449219 35.863281 348.714844 36.59375 348.777344 37.402344 C 349.253906 40.050781 353.554688 100.78125 329.660156 132.03125 Z M 329.808594 132.03125 " fill-opacity="1" fill-rule="nonzero"/></g></svg>